# xmcd
#
# Track frame offsets:
#	150
#	16418
#	43768
#	61121
#	80774
#	105273
#	131709
#	148995
#	169641
#	189278
#	214005
#	233556
#	255709
#	291109
#
# Disc length: 4159 seconds
#
# Revision: 0
# Processed by: cddbd v1.5.2PL0 Copyright (c) Steve Scherf et al.
# Submitted via: dBpowerAMP V4.0
#
DISCID=c1103d0e
DTITLE=The Accelerators - Long Time Comin'
DYEAR=2000
DGENRE=Blues
TTITLE0=Beg, Borrow,and Steal
TTITLE1=I Wanna Know
TTITLE2=A Few Steps Further
TTITLE3=Playin On Me
TTITLE4=Don't Start The Fire
TTITLE5=Blues Stalker
TTITLE6=Tax Man
TTITLE7=Long Time comin'
TTITLE8=Same Ol' Thing
TTITLE9=My Sweet Baby
TTITLE10=Sure Is
TTITLE11=Southbound
TTITLE12=Keiths Blues
TTITLE13=Hail Elmore
EXTD=A great Chicago style blues band from Florida
EXTT0=
EXTT1=
EXTT2=
EXTT3=
EXTT4=
EXTT5=
EXTT6=
EXTT7=
EXTT8=
EXTT9=
EXTT10=
EXTT11=
EXTT12=
EXTT13=
PLAYORDER=
